<svg width="323" height="323" viewBox="0 0 323 323" fill="none" xmlns="http://www.w3.org/2000/svg">
<path d="M116.745 42.6925C160.843 86.7423 161.22 160.994 161.22 160.994C161.22 160.994 90.0993 163.827 46.0006 119.777C1.90197 75.7275 1.525 1.4757 1.525 1.4757C1.525 1.4757 72.6461 -1.35726 116.745 42.6925Z" fill="#E55733" fill-opacity="0.08"/>
<path d="M205.696 42.6925C161.598 86.7423 161.221 160.994 161.221 160.994C161.221 160.994 232.342 163.827 276.44 119.777C320.539 75.7275 320.916 1.4757 320.916 1.4757C320.916 1.4757 249.795 -1.35726 205.696 42.6925Z" fill="#E55733" fill-opacity="0.08"/>
<path d="M116.745 279.233C160.843 235.183 161.22 160.932 161.22 160.932C161.22 160.932 90.0993 158.099 46.0006 202.149C1.90197 246.198 1.525 320.45 1.525 320.45C1.525 320.45 72.6461 323.283 116.745 279.233Z" fill="#E55733" fill-opacity="0.08"/>
<path d="M205.696 279.233C161.598 235.183 161.221 160.932 161.221 160.932C161.221 160.932 232.342 158.099 276.44 202.149C320.539 246.198 320.916 320.45 320.916 320.45C320.916 320.45 249.795 323.283 205.696 279.233Z" fill="#E55733" fill-opacity="0.08"/>
</svg>
